<mxfile modified="2024-07-01T14:49:13.549Z" host="Electron" agent="Mozilla/5.0 (Macintosh; Intel Mac OS X 10_15_7) AppleWebKit/537.36 (KHTML, like Gecko) draw.io/23.0.2 Chrome/120.0.6099.109 Electron/28.1.0 Safari/537.36" etag="X7II__m0EGstgB8R3Qu7" version="23.0.2" type="device">
  <diagram id="Ht1M8jgEwFfnCIfOTk4-" name="Page-1">
    <mxGraphModel dx="1478" dy="718" grid="1" gridSize="10" guides="1" tooltips="1" connect="1" arrows="1" fold="1" page="1" pageScale="1" pageWidth="1169" pageHeight="827" math="0" shadow="0">
      <root>
        <mxCell id="0" />
        <mxCell id="1" parent="0" />
        <mxCell id="D1Ydvqdf9oNecTG6BEhs-5" value="Chord Ring" style="rounded=1;whiteSpace=wrap;html=1;labelPosition=center;verticalLabelPosition=bottom;align=center;verticalAlign=top;" vertex="1" parent="1">
          <mxGeometry x="510" y="284" width="100" height="246" as="geometry" />
        </mxCell>
        <mxCell id="0NLYb-t57WMnTVVVRGzZ-2" value="RabbitMQ Queue" style="sketch=0;points=[[0,0,0],[0.25,0,0],[0.5,0,0],[0.75,0,0],[1,0,0],[0,1,0],[0.25,1,0],[0.5,1,0],[0.75,1,0],[1,1,0],[0,0.25,0],[0,0.5,0],[0,0.75,0],[1,0.25,0],[1,0.5,0],[1,0.75,0]];outlineConnect=0;fontColor=#232F3E;fillColor=#E7157B;strokeColor=#ffffff;dashed=0;verticalLabelPosition=top;verticalAlign=bottom;align=center;html=1;fontSize=12;fontStyle=0;aspect=fixed;shape=mxgraph.aws4.resourceIcon;resIcon=mxgraph.aws4.mq;labelPosition=center;" parent="1" vertex="1">
          <mxGeometry x="331" y="130" width="78" height="78" as="geometry" />
        </mxCell>
        <mxCell id="0NLYb-t57WMnTVVVRGzZ-5" value="Url To Scrap" style="edgeStyle=orthogonalEdgeStyle;rounded=0;orthogonalLoop=1;jettySize=auto;html=1;entryX=1;entryY=0.5;entryDx=0;entryDy=0;entryPerimeter=0;exitX=1;exitY=0.25;exitDx=0;exitDy=0;" parent="1" source="0NLYb-t57WMnTVVVRGzZ-9" target="0NLYb-t57WMnTVVVRGzZ-2" edge="1">
          <mxGeometry relative="1" as="geometry">
            <mxPoint x="430" y="290" as="sourcePoint" />
            <Array as="points">
              <mxPoint x="440" y="290" />
              <mxPoint x="440" y="169" />
            </Array>
          </mxGeometry>
        </mxCell>
        <mxCell id="0NLYb-t57WMnTVVVRGzZ-7" value="Url To Scrap" style="edgeStyle=orthogonalEdgeStyle;rounded=0;orthogonalLoop=1;jettySize=auto;html=1;entryX=0;entryY=0.5;entryDx=0;entryDy=0;entryPerimeter=0;" parent="1" source="0NLYb-t57WMnTVVVRGzZ-2" edge="1">
          <mxGeometry relative="1" as="geometry">
            <mxPoint x="319.9999999999998" y="294" as="targetPoint" />
            <Array as="points">
              <mxPoint x="300" y="169" />
              <mxPoint x="300" y="294" />
            </Array>
          </mxGeometry>
        </mxCell>
        <mxCell id="0NLYb-t57WMnTVVVRGzZ-9" value="" style="rounded=1;whiteSpace=wrap;html=1;labelPosition=center;verticalLabelPosition=bottom;align=center;verticalAlign=top;" parent="1" vertex="1">
          <mxGeometry x="320" y="270" width="100" height="260" as="geometry" />
        </mxCell>
        <mxCell id="0NLYb-t57WMnTVVVRGzZ-10" value="Scrapper Node" style="sketch=0;points=[[0,0,0],[0.25,0,0],[0.5,0,0],[0.75,0,0],[1,0,0],[0,1,0],[0.25,1,0],[0.5,1,0],[0.75,1,0],[1,1,0],[0,0.25,0],[0,0.5,0],[0,0.75,0],[1,0.25,0],[1,0.5,0],[1,0.75,0]];outlineConnect=0;fontColor=#FFFFFF;fillColor=#ED7100;strokeColor=#ffffff;dashed=0;verticalLabelPosition=bottom;verticalAlign=top;align=center;html=1;fontSize=12;fontStyle=0;aspect=fixed;shape=mxgraph.aws4.resourceIcon;resIcon=mxgraph.aws4.ec2;" parent="1" vertex="1">
          <mxGeometry x="331" y="290" width="78" height="78" as="geometry" />
        </mxCell>
        <mxCell id="0NLYb-t57WMnTVVVRGzZ-11" value="Scrapper Node" style="sketch=0;points=[[0,0,0],[0.25,0,0],[0.5,0,0],[0.75,0,0],[1,0,0],[0,1,0],[0.25,1,0],[0.5,1,0],[0.75,1,0],[1,1,0],[0,0.25,0],[0,0.5,0],[0,0.75,0],[1,0.25,0],[1,0.5,0],[1,0.75,0]];outlineConnect=0;fontColor=#FFFFFF;fillColor=#ED7100;strokeColor=#ffffff;dashed=0;verticalLabelPosition=bottom;verticalAlign=top;align=center;html=1;fontSize=12;fontStyle=0;aspect=fixed;shape=mxgraph.aws4.resourceIcon;resIcon=mxgraph.aws4.ec2;" parent="1" vertex="1">
          <mxGeometry x="331" y="410" width="78" height="78" as="geometry" />
        </mxCell>
        <mxCell id="xZEvpAdEOW2T9ZIsfyag-11" value="Store" style="edgeStyle=orthogonalEdgeStyle;rounded=0;orthogonalLoop=1;jettySize=auto;html=1;" parent="1" target="xZEvpAdEOW2T9ZIsfyag-10" edge="1">
          <mxGeometry relative="1" as="geometry">
            <mxPoint x="758" y="400" as="sourcePoint" />
          </mxGeometry>
        </mxCell>
        <mxCell id="qPrZ4s7JQlvxO7eF6PHI-4" value="Replication" style="edgeStyle=orthogonalEdgeStyle;rounded=0;orthogonalLoop=1;jettySize=auto;html=1;entryX=0;entryY=0.5;entryDx=0;entryDy=0;entryPerimeter=0;" parent="1" edge="1">
          <mxGeometry relative="1" as="geometry">
            <mxPoint x="918.0000000000005" y="399" as="sourcePoint" />
          </mxGeometry>
        </mxCell>
        <mxCell id="qPrZ4s7JQlvxO7eF6PHI-5" value="Replication" style="edgeStyle=orthogonalEdgeStyle;rounded=0;orthogonalLoop=1;jettySize=auto;html=1;entryX=0;entryY=0.5;entryDx=0;entryDy=0;entryPerimeter=0;" parent="1" edge="1">
          <mxGeometry relative="1" as="geometry">
            <mxPoint x="918.0000000000005" y="520.0000000000002" as="sourcePoint" />
          </mxGeometry>
        </mxCell>
        <mxCell id="qPrZ4s7JQlvxO7eF6PHI-6" value="Replication" style="edgeStyle=orthogonalEdgeStyle;rounded=0;orthogonalLoop=1;jettySize=auto;html=1;entryX=0;entryY=0.5;entryDx=0;entryDy=0;entryPerimeter=0;" parent="1" edge="1">
          <mxGeometry relative="1" as="geometry">
            <mxPoint x="918.0000000000005" y="639" as="sourcePoint" />
          </mxGeometry>
        </mxCell>
        <mxCell id="xZEvpAdEOW2T9ZIsfyag-14" value="Replication" style="edgeStyle=orthogonalEdgeStyle;rounded=0;orthogonalLoop=1;jettySize=auto;html=1;" parent="1" target="xZEvpAdEOW2T9ZIsfyag-5" edge="1">
          <mxGeometry relative="1" as="geometry">
            <mxPoint x="936.1252934272297" y="344.5" as="sourcePoint" />
          </mxGeometry>
        </mxCell>
        <mxCell id="xZEvpAdEOW2T9ZIsfyag-13" value="Replication" style="edgeStyle=orthogonalEdgeStyle;rounded=0;orthogonalLoop=1;jettySize=auto;html=1;" parent="1" target="xZEvpAdEOW2T9ZIsfyag-7" edge="1">
          <mxGeometry relative="1" as="geometry">
            <mxPoint x="936.1252934272297" y="454.5" as="sourcePoint" />
          </mxGeometry>
        </mxCell>
        <mxCell id="D1Ydvqdf9oNecTG6BEhs-7" value="Replicate" style="edgeStyle=orthogonalEdgeStyle;rounded=0;orthogonalLoop=1;jettySize=auto;html=1;" edge="1" parent="1" source="D1Ydvqdf9oNecTG6BEhs-2">
          <mxGeometry relative="1" as="geometry">
            <mxPoint x="660" y="410" as="targetPoint" />
          </mxGeometry>
        </mxCell>
        <mxCell id="D1Ydvqdf9oNecTG6BEhs-2" value="Storage Node" style="sketch=0;points=[[0,0,0],[0.25,0,0],[0.5,0,0],[0.75,0,0],[1,0,0],[0,1,0],[0.25,1,0],[0.5,1,0],[0.75,1,0],[1,1,0],[0,0.25,0],[0,0.5,0],[0,0.75,0],[1,0.25,0],[1,0.5,0],[1,0.75,0]];outlineConnect=0;fontColor=#FFFFFF;fillColor=#7AA116;strokeColor=#ffffff;dashed=0;verticalLabelPosition=bottom;verticalAlign=top;align=center;html=1;fontSize=12;fontStyle=0;aspect=fixed;shape=mxgraph.aws4.resourceIcon;resIcon=mxgraph.aws4.s3;" vertex="1" parent="1">
          <mxGeometry x="521" y="304" width="78" height="78" as="geometry" />
        </mxCell>
        <mxCell id="D1Ydvqdf9oNecTG6BEhs-8" value="Replicate" style="edgeStyle=orthogonalEdgeStyle;rounded=0;orthogonalLoop=1;jettySize=auto;html=1;" edge="1" parent="1" source="D1Ydvqdf9oNecTG6BEhs-4">
          <mxGeometry relative="1" as="geometry">
            <mxPoint x="660" y="400" as="targetPoint" />
          </mxGeometry>
        </mxCell>
        <mxCell id="D1Ydvqdf9oNecTG6BEhs-4" value="Storage Node" style="sketch=0;points=[[0,0,0],[0.25,0,0],[0.5,0,0],[0.75,0,0],[1,0,0],[0,1,0],[0.25,1,0],[0.5,1,0],[0.75,1,0],[1,1,0],[0,0.25,0],[0,0.5,0],[0,0.75,0],[1,0.25,0],[1,0.5,0],[1,0.75,0]];outlineConnect=0;fontColor=#FFFFFF;fillColor=#7AA116;strokeColor=#ffffff;dashed=0;verticalLabelPosition=bottom;verticalAlign=top;align=center;html=1;fontSize=12;fontStyle=0;aspect=fixed;shape=mxgraph.aws4.resourceIcon;resIcon=mxgraph.aws4.s3;" vertex="1" parent="1">
          <mxGeometry x="521" y="414" width="78" height="78" as="geometry" />
        </mxCell>
        <mxCell id="D1Ydvqdf9oNecTG6BEhs-6" value="Product" style="edgeStyle=orthogonalEdgeStyle;rounded=0;orthogonalLoop=1;jettySize=auto;html=1;entryX=-0.05;entryY=0.472;entryDx=0;entryDy=0;entryPerimeter=0;" edge="1" parent="1" source="0NLYb-t57WMnTVVVRGzZ-9" target="D1Ydvqdf9oNecTG6BEhs-5">
          <mxGeometry relative="1" as="geometry" />
        </mxCell>
      </root>
    </mxGraphModel>
  </diagram>
</mxfile>
